<svg xmlns="http://www.w3.org/2000/svg" width="1507" height="1378" viewBox="0 0 1507 1378"><style type="text/css">.st0{fill:#282828;} .st1{fill:#F64400;}</style><ellipse transform="matrix(.302 -.953 .953 .302 519.802 1347.419)" class="st0" cx="1180" cy="318.8" rx="42" ry="42"/><path class="st0" d="M1500.7 176.9l-17.9-32.5c-8.1-15.4-12.9-29.9-16-45.5l-7.4-39.9c-.8-14.3-13.1-21.7-25.6-19.2l-.9.2-1.5.4c-.4.1-.9.3-1.3.5-2.2.8-4.4 2-6.5 3.5v.1l-35.8 19.7c-15.4 8.1-29.9 12.9-45.5 16l-38.5 7.2v-.1c-2.6.1-5 .7-7.2 1.4-.4.1-.8.3-1.3.5-.6.2-1.2.5-1.7.7-.1.1-.3.2-.4.2-11.4 5.8-16.4 19.5-7.9 31.2l19.5 35.5c7.6 14 13 28.3 16.5 45.3l7.7 41.6c.9 16 16.2 23.4 30 17.9 2.1-.7 4.1-1.7 6.1-3.2l35.5-19.5c14-7.6 28.3-13 45.3-16.5l38-7.1c2-.1 3.9-.5 5.7-1 5.7-.9 10.1-3.9 12.9-8 5.5-6.5 6.8-15.5 1.5-23.8-1-1.8-2-3.8-3.3-5.6zM1149.4 47l40.5 21.9c5.2 2.8 5.2 10.2.1 13l-40.2 22.3c-1.2.7-2.3 1.7-2.9 3l-21.9 40.5c-2.8 5.2-10.2 5.2-13 .1l-22.3-40.2c-.7-1.2-1.7-2.3-3-2.9l-40.5-21.9c-5.2-2.8-5.2-10.2-.1-13l40.2-22.3c1.2-.7 2.3-1.7 2.9-3l21.9-40.5c2.8-5.2 10.2-5.2 13-.1l22.3 40.2c.7 1.2 1.8 2.2 3 2.9z"/><path class="st1" d="M1067.1 337.9l-26.8-26.8c-19.2-19.2-50.7-19.2-69.9 0l-116 116c-89.5-69-201.8-110.1-323.7-110.1-293.1 0-530.7 237.5-530.7 530.6s237.6 530.7 530.7 530.7 530.7-237.6 530.7-530.7c0-121.9-41.1-234.2-110.2-323.8l116-116c19.1-19.2 19.1-50.6-.1-69.9zm-536.4 903.8c-217.6 0-394-176.4-394-394s176.4-394 394-394 394 176.4 394 394-176.4 394-394 394z"/></svg>
